<svg xmlns="http://www.w3.org/2000/svg">
  <symbol id="file" viewBox="0 0 24 24"><g fill="none" stroke="var(--color)" stroke-linecap="round" stroke-linejoin="round" stroke-width="2"><path d="M14 3v4a1 1 0 0 0 1 1h4"/><path d="M17 21H7a2 2 0 0 1-2-2V5a2 2 0 0 1 2-2h7l5 5v11a2 2 0 0 1-2 2"/></g></symbol>
  <symbol id="settings" viewBox="0 0 24 24"><g fill="none" stroke="var(--color)" stroke-linecap="round" stroke-linejoin="round" stroke-width="2"><path d="M10.325 4.317c.426-1.756 2.924-1.756 3.35 0a1.724 1.724 0 0 0 2.573 1.066c1.543-.94 3.31.826 2.37 2.37a1.724 1.724 0 0 0 1.065 2.572c1.756.426 1.756 2.924 0 3.35a1.724 1.724 0 0 0-1.066 2.573c.94 1.543-.826 3.31-2.37 2.37a1.724 1.724 0 0 0-2.572 1.065c-.426 1.756-2.924 1.756-3.35 0a1.724 1.724 0 0 0-2.573-1.066c-1.543.94-3.31-.826-2.37-2.37a1.724 1.724 0 0 0-1.065-2.572c-1.756-.426-1.756-2.924 0-3.35a1.724 1.724 0 0 0 1.066-2.573c-.94-1.543.826-3.31 2.37-2.37c1 .608 2.296.07 2.572-1.065"/><path d="M9 12a3 3 0 1 0 6 0a3 3 0 0 0-6 0"/></g></symbol>
  <symbol id="brand-github" viewBox="0 0 24 24"><path fill="none" stroke="var(--color)" stroke-linecap="round" stroke-linejoin="round" stroke-width="2" d="M9 19c-4.3 1.4-4.3-2.5-6-3m12 5v-3.5c0-1 .1-1.4-.5-2c2.8-.3 5.5-1.4 5.5-6a4.6 4.6 0 0 0-1.3-3.2a4.2 4.2 0 0 0-.1-3.2s-1.1-.3-3.5 1.3a12.3 12.3 0 0 0-6.2 0C6.5 2.8 5.4 3.1 5.4 3.1a4.2 4.2 0 0 0-.1 3.2A4.6 4.6 0 0 0 4 9.5c0 4.6 2.7 5.7 5.5 6c-.6.6-.6 1.2-.5 2V21"/></symbol>
  <symbol id="history" viewBox="0 0 24 24"><g fill="none" stroke="var(--color)" stroke-linecap="round" stroke-linejoin="round" stroke-width="2"><path d="M12 8v4l2 2"/><path d="M3.05 11a9 9 0 1 1 .5 4m-.5 5v-5h5"/></g></symbol>
  <symbol id="menu" viewBox="0 0 24 24"><path fill="var(--color)" stroke="var(--color)" stroke-linecap="round" stroke-linejoin="round" stroke-width="2" d="M4 8h16M4 16h16"/></symbol>
  <symbol id="package" viewBox="0 0 24 24"><path fill="none" stroke="var(--color)" stroke-linecap="round" stroke-linejoin="round" stroke-width="2" d="m12 3l8 4.5v9L12 21l-8-4.5v-9zm0 9l8-4.5M12 12v9m0-9L4 7.5m12-2.25l-8 4.5"/></symbol>
  <symbol id="powershell" viewBox="0 0 24 24"><g fill="none" stroke="var(--color)" stroke-linecap="round" stroke-linejoin="round" stroke-width="2"><path d="M4.887 20h11.868c.893 0 1.664-.665 1.847-1.592l2.358-12c.212-1.081-.442-2.14-1.462-2.366A1.8 1.8 0 0 0 19.113 4H7.245c-.893 0-1.664.665-1.847 1.592l-2.358 12c-.212 1.081.442 2.14 1.462 2.366q.191.042.385.042"/><path d="m9 8l4 4l-6 4m5 0h3"/></g></symbol>
</svg>