<?xml version="1.0" encoding="utf-8"?>
<svg xmlns="http://www.w3.org/2000/svg">
  <symbol id="html5" viewBox="0 0 128 128"><path fill="#E44D26" d="M19.037 113.876L9.032 1.661h109.936l-10.016 112.198l-45.019 12.48z"/><path fill="#F16529" d="m64 116.8l36.378-10.086l8.559-95.878H64z"/><path fill="#EBEBEB" d="M64 52.455H45.788L44.53 38.361H64V24.599H29.489l.33 3.692l3.382 37.927H64zm0 35.743l-.061.017l-15.327-4.14l-.979-10.975H33.816l1.928 21.609l28.193 7.826l.063-.017z"/><path fill="#fff" d="M63.952 52.455v13.763h16.947l-1.597 17.849l-15.35 4.143v14.319l28.215-7.82l.207-2.325l3.234-36.233l.335-3.696h-3.708zm0-27.856v13.762h33.244l.276-3.092l.628-6.978l.329-3.692z"/></symbol>
  <symbol id="css3" viewBox="0 0 128 128"><path fill="#1572B6" d="M18.814 114.123L8.76 1.352h110.48l-10.064 112.754l-45.243 12.543z"/><path fill="#33A9DC" d="m64.001 117.062l36.559-10.136l8.601-96.354h-45.16z"/><path fill="#fff" d="M64.001 51.429h18.302l1.264-14.163H64.001V23.435h34.682l-.332 3.711l-3.4 38.114h-30.95z"/><path fill="#EBEBEB" d="m64.083 87.349l-.061.018l-15.403-4.159l-.985-11.031H33.752l1.937 21.717l28.331 7.863l.063-.018z"/><path fill="#fff" d="m81.127 64.675l-1.666 18.522l-15.426 4.164v14.39l28.354-7.858l.208-2.337l2.406-26.881z"/><path fill="#EBEBEB" d="M64.048 23.435v13.831H30.64l-.277-3.108l-.63-7.012l-.331-3.711zm-.047 27.996v13.831H48.792l-.277-3.108l-.631-7.012l-.33-3.711z"/></symbol>
  <symbol id="javascript" viewBox="0 0 128 128"><path fill="#F0DB4F" d="M1.408 1.408h125.184v125.185H1.408z"/><path fill="#323330" d="M116.347 96.736c-.917-5.711-4.641-10.508-15.672-14.981c-3.832-1.761-8.104-3.022-9.377-5.926c-.452-1.69-.512-2.642-.226-3.665c.821-3.32 4.784-4.355 7.925-3.403c2.023.678 3.938 2.237 5.093 4.724c5.402-3.498 5.391-3.475 9.163-5.879c-1.381-2.141-2.118-3.129-3.022-4.045c-3.249-3.629-7.676-5.498-14.756-5.355l-3.688.477c-3.534.893-6.902 2.748-8.877 5.235c-5.926 6.724-4.236 18.492 2.975 23.335c7.104 5.332 17.54 6.545 18.873 11.531c1.297 6.104-4.486 8.08-10.234 7.378c-4.236-.881-6.592-3.034-9.139-6.949c-4.688 2.713-4.688 2.713-9.508 5.485c1.143 2.499 2.344 3.63 4.26 5.795c9.068 9.198 31.76 8.746 35.83-5.176c.165-.478 1.261-3.666.38-8.581M69.462 58.943H57.753l-.048 30.272c0 6.438.333 12.34-.714 14.149c-1.713 3.558-6.152 3.117-8.175 2.427c-2.059-1.012-3.106-2.451-4.319-4.485c-.333-.584-.583-1.036-.667-1.071l-9.52 5.83c1.583 3.249 3.915 6.069 6.902 7.901c4.462 2.678 10.459 3.499 16.731 2.059c4.082-1.189 7.604-3.652 9.448-7.401c2.666-4.915 2.094-10.864 2.07-17.444c.06-10.735.001-21.468.001-32.237"/></symbol>
</svg>