<?xml version="1.0" encoding="utf-8"?>
<svg xmlns="http://www.w3.org/2000/svg">
	<symbol viewBox="0 0 24 24" id="box-seam"><path fill="none" stroke="var(--stroke)" stroke-linecap="round" stroke-linejoin="round" stroke-width="2" d="m12 3l8 4.5v9L12 21l-8-4.5v-9zm0 9l8-4.5M8.2 9.8l7.6-4.6M12 12v9m0-9L4 7.5"/></symbol>
	<symbol viewBox="0 0 24 24" id="brand-github"><path fill="none" stroke="var(--stroke)" stroke-linecap="round" stroke-linejoin="round" stroke-width="2" d="M9 19c-4.3 1.4-4.3-2.5-6-3m12 5v-3.5c0-1 .1-1.4-.5-2c2.8-.3 5.5-1.4 5.5-6a4.6 4.6 0 0 0-1.3-3.2a4.2 4.2 0 0 0-.1-3.2s-1.1-.3-3.5 1.3a12.3 12.3 0 0 0-6.2 0C6.5 2.8 5.4 3.1 5.4 3.1a4.2 4.2 0 0 0-.1 3.2A4.6 4.6 0 0 0 4 9.5c0 4.6 2.7 5.7 5.5 6c-.6.6-.6 1.2-.5 2V21"/></symbol>
	<symbol viewBox="0 0 24 24" id="brand-onedrive"><path fill="none" stroke="var(--stroke)" stroke-linecap="round" stroke-linejoin="round" stroke-width="2" d="M18.456 10.45a6.45 6.45 0 0 0-12-2.151a4.857 4.857 0 0 0-4.44 5.241a4.856 4.856 0 0 0 5.236 4.444h10.751a3.77 3.77 0 0 0 3.99-3.54a3.77 3.77 0 0 0-3.538-3.992z"/></symbol>
	<symbol viewBox="0 0 24 24" id="cloud-upload"><g fill="none" stroke="var(--stroke)" stroke-linecap="round" stroke-linejoin="round" stroke-width="2"><path d="M7 18a4.6 4.4 0 0 1 0-9a5 4.5 0 0 1 11 2h1a3.5 3.5 0 0 1 0 7h-1" stroke="var(--stroke)"/><path d="m9 15l3-3l3 3m-3-3v9" stroke="var(--stroke)"/></g></symbol>
	<symbol viewBox="0 0 24 24" id="cube"><path fill="none" stroke="var(--stroke)" stroke-linecap="round" stroke-linejoin="round" stroke-width="2" d="M21 16.008V7.99a1.98 1.98 0 0 0-1-1.717l-7-4.008a2.02 2.02 0 0 0-2 0L4 6.273c-.619.355-1 1.01-1 1.718v8.018c0 .709.381 1.363 1 1.717l7 4.008a2.02 2.02 0 0 0 2 0l7-4.008c.619-.355 1-1.01 1-1.718M12 22V12m0 0l8.73-5.04m-17.46 0L12 12"/></symbol>
	<symbol viewBox="0 0 24 24" id="file"><g fill="none" stroke="var(--stroke)" stroke-linecap="round" stroke-linejoin="round" stroke-width="2"><path d="M14 3v4a1 1 0 0 0 1 1h4" stroke="var(--stroke)"/><path d="M17 21H7a2 2 0 0 1-2-2V5a2 2 0 0 1 2-2h7l5 5v11a2 2 0 0 1-2 2" stroke="var(--stroke)"/></g></symbol>
	<symbol viewBox="0 0 24 24" id="history"><g fill="none" stroke="var(--stroke)" stroke-linecap="round" stroke-linejoin="round" stroke-width="2"><path d="M12 8v4l2 2" stroke="var(--stroke)"/><path d="M3.05 11a9 9 0 1 1 .5 4m-.5 5v-5h5" stroke="var(--stroke)"/></g></symbol>
	<symbol viewBox="0 0 24 24" id="menu-2"><path fill="none" stroke="var(--stroke)" stroke-linecap="round" stroke-linejoin="round" stroke-width="2" d="M4 6h16M4 12h16M4 18h16"/></symbol>
	<symbol viewBox="0 0 24 24" id="playlist-add"><path fill="none" stroke="var(--stroke)" stroke-linecap="round" stroke-linejoin="round" stroke-width="2" d="M19 8H5m0 4h9m-3 4H5m10 0h6m-3-3v6"/></symbol>
	<symbol viewBox="0 0 24 24" id="plus"><path fill="none" stroke="var(--stroke)" stroke-linecap="round" stroke-linejoin="round" stroke-width="2" d="M12 5v14m-7-7h14"/></symbol>
	<symbol viewBox="0 0 24 24" id="reload"><g fill="none" stroke="var(--stroke)" stroke-linecap="round" stroke-linejoin="round" stroke-width="2"><path d="M19.933 13.041a8 8 0 1 1-9.925-8.788c3.899-1 7.935 1.007 9.425 4.747" stroke="var(--stroke)"/><path d="M20 4v5h-5" stroke="var(--stroke)"/></g></symbol>
	<symbol viewBox="0 0 24 24" id="settings"><g fill="none" stroke="var(--stroke)" stroke-linecap="round" stroke-linejoin="round" stroke-width="2"><path d="M10.325 4.317c.426-1.756 2.924-1.756 3.35 0a1.724 1.724 0 0 0 2.573 1.066c1.543-.94 3.31.826 2.37 2.37a1.724 1.724 0 0 0 1.065 2.572c1.756.426 1.756 2.924 0 3.35a1.724 1.724 0 0 0-1.066 2.573c.94 1.543-.826 3.31-2.37 2.37a1.724 1.724 0 0 0-2.572 1.065c-.426 1.756-2.924 1.756-3.35 0a1.724 1.724 0 0 0-2.573-1.066c-1.543.94-3.31-.826-2.37-2.37a1.724 1.724 0 0 0-1.065-2.572c-1.756-.426-1.756-2.924 0-3.35a1.724 1.724 0 0 0 1.066-2.573c-.94-1.543.826-3.31 2.37-2.37c1 .608 2.296.07 2.572-1.065" stroke="var(--stroke)"/><path d="M9 12a3 3 0 1 0 6 0a3 3 0 0 0-6 0" stroke="var(--stroke)"/></g></symbol>
	<symbol viewBox="0 0 24 24" id="share-2"><path fill="none" stroke="var(--stroke)" stroke-linecap="round" stroke-linejoin="round" stroke-width="2" d="M8 9H7a2 2 0 0 0-2 2v8a2 2 0 0 0 2 2h10a2 2 0 0 0 2-2v-8a2 2 0 0 0-2-2h-1m-4 5V3M9 6l3-3l3 3"/></symbol>
	<symbol viewBox="0 0 24 24" id="share-3"><path fill="none" stroke="var(--stroke)" stroke-linecap="round" stroke-linejoin="round" stroke-width="2" d="M13 4v4C6.425 9.028 3.98 14.788 3 20c-.037.206 5.384-5.962 10-6v4l8-7z"/></symbol>
	<symbol viewBox="0 0 24 24" id="share"><path fill="none" stroke="var(--stroke)" stroke-linecap="round" stroke-linejoin="round" stroke-width="2" d="M3 12a3 3 0 1 0 6 0a3 3 0 1 0-6 0m12-6a3 3 0 1 0 6 0a3 3 0 1 0-6 0m0 12a3 3 0 1 0 6 0a3 3 0 1 0-6 0m-6.3-7.3l6.6-3.4m-6.6 6l6.6 3.4"/></symbol>
	<symbol viewBox="0 0 24 24" id="terminal-2"><g fill="none" stroke="var(--stroke)" stroke-linecap="round" stroke-linejoin="round" stroke-width="2"><path d="m8 9l3 3l-3 3m5 0h3" stroke="var(--stroke)"/><path d="M3 6a2 2 0 0 1 2-2h14a2 2 0 0 1 2 2v12a2 2 0 0 1-2 2H5a2 2 0 0 1-2-2z" stroke="var(--stroke)"/></g></symbol>
	<symbol viewBox="0 0 24 24" id="user"><path fill="none" stroke="var(--stroke)" stroke-linecap="round" stroke-linejoin="round" stroke-width="2" d="M8 7a4 4 0 1 0 8 0a4 4 0 0 0-8 0M6 21v-2a4 4 0 0 1 4-4h4a4 4 0 0 1 4 4v2"/></symbol>
	<symbol viewBox="0 0 24 24" id="window-maximize"><g fill="none" stroke="var(--stroke)" stroke-linecap="round" stroke-linejoin="round" stroke-width="2"><path d="M3 17a1 1 0 0 1 1-1h3a1 1 0 0 1 1 1v3a1 1 0 0 1-1 1H4a1 1 0 0 1-1-1zm1-5V6a2 2 0 0 1 2-2h12a2 2 0 0 1 2 2v12a2 2 0 0 1-2 2h-6" stroke="var(--stroke)"/><path d="M12 8h4v4m0-4l-5 5" stroke="var(--stroke)"/></g></symbol>
</svg>