<?xml version="1.0" encoding="utf-8"?>
<svg xmlns="http://www.w3.org/2000/svg">
	<symbol viewBox="0 0 24 24" id="box-seam"><path fill="none" stroke="var(--stroke)" stroke-linecap="round" stroke-linejoin="round" stroke-width="2" d="m12 3l8 4.5v9L12 21l-8-4.5v-9zm0 9l8-4.5M8.2 9.8l7.6-4.6M12 12v9m0-9L4 7.5"/></symbol>
	<symbol viewBox="0 0 24 24" id="brand-github"><path fill="none" stroke="var(--stroke)" stroke-linecap="round" stroke-linejoin="round" stroke-width="2" d="M9 19c-4.3 1.4-4.3-2.5-6-3m12 5v-3.5c0-1 .1-1.4-.5-2c2.8-.3 5.5-1.4 5.5-6a4.6 4.6 0 0 0-1.3-3.2a4.2 4.2 0 0 0-.1-3.2s-1.1-.3-3.5 1.3a12.3 12.3 0 0 0-6.2 0C6.5 2.8 5.4 3.1 5.4 3.1a4.2 4.2 0 0 0-.1 3.2A4.6 4.6 0 0 0 4 9.5c0 4.6 2.7 5.7 5.5 6c-.6.6-.6 1.2-.5 2V21"/></symbol>
	<symbol viewBox="0 0 24 24" id="brand-onedrive"><path fill="none" stroke="var(--stroke)" stroke-linecap="round" stroke-linejoin="round" stroke-width="2" d="M18.456 10.45a6.45 6.45 0 0 0-12-2.151a4.857 4.857 0 0 0-4.44 5.241a4.856 4.856 0 0 0 5.236 4.444h10.751a3.77 3.77 0 0 0 3.99-3.54a3.77 3.77 0 0 0-3.538-3.992z"/></symbol>
	<symbol viewBox="0 0 24 24" id="file"><g fill="none" stroke="var(--stroke)" stroke-linecap="round" stroke-linejoin="round" stroke-width="2"><path d="M14 3v4a1 1 0 0 0 1 1h4" stroke="var(--stroke)"/><path d="M17 21H7a2 2 0 0 1-2-2V5a2 2 0 0 1 2-2h7l5 5v11a2 2 0 0 1-2 2" stroke="var(--stroke)"/></g></symbol>
	<symbol viewBox="0 0 24 24" id="history"><g fill="none" stroke="var(--stroke)" stroke-linecap="round" stroke-linejoin="round" stroke-width="2"><path d="M12 8v4l2 2" stroke="var(--stroke)"/><path d="M3.05 11a9 9 0 1 1 .5 4m-.5 5v-5h5" stroke="var(--stroke)"/></g></symbol>
	<symbol viewBox="0 0 24 24" id="settings"><g fill="none" stroke="var(--stroke)" stroke-linecap="round" stroke-linejoin="round" stroke-width="2"><path d="M10.325 4.317c.426-1.756 2.924-1.756 3.35 0a1.724 1.724 0 0 0 2.573 1.066c1.543-.94 3.31.826 2.37 2.37a1.724 1.724 0 0 0 1.065 2.572c1.756.426 1.756 2.924 0 3.35a1.724 1.724 0 0 0-1.066 2.573c.94 1.543-.826 3.31-2.37 2.37a1.724 1.724 0 0 0-2.572 1.065c-.426 1.756-2.924 1.756-3.35 0a1.724 1.724 0 0 0-2.573-1.066c-1.543.94-3.31-.826-2.37-2.37a1.724 1.724 0 0 0-1.065-2.572c-1.756-.426-1.756-2.924 0-3.35a1.724 1.724 0 0 0 1.066-2.573c-.94-1.543.826-3.31 2.37-2.37c1 .608 2.296.07 2.572-1.065" stroke="var(--stroke)"/><path d="M9 12a3 3 0 1 0 6 0a3 3 0 0 0-6 0" stroke="var(--stroke)"/></g></symbol>
	<symbol viewBox="0 0 24 24" id="terminal-2"><g fill="none" stroke="var(--stroke)" stroke-linecap="round" stroke-linejoin="round" stroke-width="2"><path d="m8 9l3 3l-3 3m5 0h3" stroke="var(--stroke)"/><path d="M3 6a2 2 0 0 1 2-2h14a2 2 0 0 1 2 2v12a2 2 0 0 1-2 2H5a2 2 0 0 1-2-2z" stroke="var(--stroke)"/></g></symbol>
</svg>